<svg id="c6f7ee44-4864-4d8f-9a35-4d9d5a616de6" data-name="Layer 1" xmlns="http://www.w3.org/2000/svg" xmlns:xlink="http://www.w3.org/1999/xlink" width="25.0007" height="25" viewBox="0 0 25.0007 25"><defs><style>.\32 755011f-b2d6-4131-859a-db9d153905c6{fill:none;}.e9e5447f-a879-4062-bf3b-e4e87b1d6dab{fill:#b11e24;}.\37 eb07e6f-73e3-473b-8786-94995dc9a20d{clip-path:url(#eb9de6fa-02ad-4675-bdcf-30cb4ecfb650);}.\36 0266436-d69f-4ce5-8bcb-6c71ba1bbe10{fill:gray;}</style><clipPath id="eb9de6fa-02ad-4675-bdcf-30cb4ecfb650"><rect class="2755011f-b2d6-4131-859a-db9d153905c6" width="25" height="25"/></clipPath></defs><title>icon-check</title><polygon class="e9e5447f-a879-4062-bf3b-e4e87b1d6dab" points="12 15 6.001 10 5.001 10.999 12 18 25.001 4 24.001 3 12 15"/><g class="7eb07e6f-73e3-473b-8786-94995dc9a20d"><path class="60266436-d69f-4ce5-8bcb-6c71ba1bbe10" d="M12.5,25a12.5,12.5,0,0,1,0-25,12.37568,12.37568,0,0,1,7.706,2.657.5.5,0,0,1-.617.787A11.38027,11.38027,0,0,0,12.5,1,11.5,11.5,0,1,0,24,12.5a11.63651,11.63651,0,0,0-.243-2.364.49953.49953,0,1,1,.978-.204A12.507,12.507,0,0,1,12.5,25"/></g></svg>